<svg xmlns="http://www.w3.org/2000/svg" width="780" height="350" viewBox="0 0 780 350" font-family="ui-sans-serif, system-ui, -apple-system, Segoe UI, Roboto, Helvetica, Arial, sans-serif">
<rect width="780" height="350" fill="#0d1117"/>
<text x="390.0" y="28" fill="#e6edf3" font-size="17" font-weight="700" text-anchor="middle">Generalization to unseen attackers</text>
<text x="390.0" y="48" fill="#8b949e" font-size="12" text-anchor="middle">test worst-case reward after training on a disjoint attacker set (higher is better)</text>
<line x1="60" y1="270.0" x2="760" y2="270.0" stroke="#30363d" stroke-width="1"/>
<text x="52" y="274.0" fill="#8b949e" font-size="11" text-anchor="end">0.0</text>
<line x1="60" y1="170.0" x2="760" y2="170.0" stroke="#30363d" stroke-width="1"/>
<text x="52" y="174.0" fill="#8b949e" font-size="11" text-anchor="end">0.5</text>
<line x1="60" y1="70.0" x2="760" y2="70.0" stroke="#30363d" stroke-width="1"/>
<text x="52" y="74.0" fill="#8b949e" font-size="11" text-anchor="end">1.0</text>
<rect x="84.0" y="268.0" width="49.0" height="2.0" rx="3" fill="#f85149"/>
<text x="108.5" y="262.0" fill="#e6edf3" font-size="12" font-weight="700" text-anchor="middle">0.00</text>
<text x="108.5" y="288.0" fill="#8b949e" font-size="11" text-anchor="middle">threshold</text>
<rect x="157.0" y="70.0" width="49.0" height="200.0" rx="3" fill="#3fb950"/>
<text x="181.5" y="64.0" fill="#e6edf3" font-size="12" font-weight="700" text-anchor="middle">1.00</text>
<text x="181.5" y="288.0" fill="#8b949e" font-size="11" text-anchor="middle">structural</text>
<text x="132.5" y="310.0" fill="#e6edf3" font-size="12" font-weight="600" text-anchor="middle">01 reentrancy</text>
<rect x="254.0" y="268.0" width="49.0" height="2.0" rx="3" fill="#f85149"/>
<text x="278.5" y="262.0" fill="#e6edf3" font-size="12" font-weight="700" text-anchor="middle">0.00</text>
<text x="278.5" y="288.0" fill="#8b949e" font-size="11" text-anchor="middle">threshold</text>
<rect x="327.0" y="70.0" width="49.0" height="200.0" rx="3" fill="#3fb950"/>
<text x="351.5" y="64.0" fill="#e6edf3" font-size="12" font-weight="700" text-anchor="middle">1.00</text>
<text x="351.5" y="288.0" fill="#8b949e" font-size="11" text-anchor="middle">structural</text>
<text x="302.5" y="310.0" fill="#e6edf3" font-size="12" font-weight="600" text-anchor="middle">02 oracle</text>
<rect x="424.0" y="268.0" width="49.0" height="2.0" rx="3" fill="#f85149"/>
<text x="448.5" y="262.0" fill="#e6edf3" font-size="12" font-weight="700" text-anchor="middle">0.00</text>
<text x="448.5" y="288.0" fill="#8b949e" font-size="11" text-anchor="middle">threshold</text>
<rect x="497.0" y="70.0" width="49.0" height="200.0" rx="3" fill="#3fb950"/>
<text x="521.5" y="64.0" fill="#e6edf3" font-size="12" font-weight="700" text-anchor="middle">1.00</text>
<text x="521.5" y="288.0" fill="#8b949e" font-size="11" text-anchor="middle">structural</text>
<text x="472.5" y="310.0" fill="#e6edf3" font-size="12" font-weight="600" text-anchor="middle">03 access</text>
<rect x="594.0" y="268.0" width="49.0" height="2.0" rx="3" fill="#f85149"/>
<text x="618.5" y="262.0" fill="#e6edf3" font-size="12" font-weight="700" text-anchor="middle">0.00</text>
<text x="618.5" y="288.0" fill="#8b949e" font-size="11" text-anchor="middle">threshold</text>
<rect x="667.0" y="70.0" width="49.0" height="200.0" rx="3" fill="#3fb950"/>
<text x="691.5" y="64.0" fill="#e6edf3" font-size="12" font-weight="700" text-anchor="middle">1.00</text>
<text x="691.5" y="288.0" fill="#8b949e" font-size="11" text-anchor="middle">structural</text>
<text x="642.5" y="310.0" fill="#e6edf3" font-size="12" font-weight="600" text-anchor="middle">04 governance</text>
<text x="390.0" y="338" fill="#8b949e" font-size="11" text-anchor="middle">Across four vulnerability classes, structural defenses generalize while threshold defenses collapse on unseen attackers.</text>
</svg>